<svg xmlns="http://www.w3.org/2000/svg" viewBox="0 0 360 720" width="360" height="720">
  <defs>
    <linearGradient id="ph2-bg" x1="0" x2="0.5" y1="0" y2="1">
      <stop offset="0" stop-color="#5A88B8"/>
      <stop offset="0.5" stop-color="#2B4A6B"/>
      <stop offset="1" stop-color="#0D1B2A"/>
    </linearGradient>
    <radialGradient id="ph2-glow" cx="0.55" cy="0.4" r="0.55">
      <stop offset="0" stop-color="rgba(160,200,255,0.4)"/>
      <stop offset="1" stop-color="rgba(0,0,0,0)"/>
    </radialGradient>
  </defs>
  <rect width="360" height="720" fill="url(#ph2-bg)"/>
  <rect width="360" height="720" fill="url(#ph2-glow)"/>

  <text x="20" y="36" font-family="Arial Black, sans-serif" font-size="13" font-weight="900" fill="#F0EDE8">10:23</text>
  <rect x="304" y="22" width="36" height="14" rx="3" fill="rgba(240,237,232,0.85)"/>
  <rect x="306" y="24" width="32" height="10" rx="1" fill="rgba(0,0,0,0.5)"/>

  <!-- Subject -->
  <ellipse cx="180" cy="280" rx="100" ry="120" fill="rgba(50,80,120,0.6)"/>
  <ellipse cx="180" cy="170" rx="42" ry="50" fill="#E8B585"/>
  <path d="M140 130 q40 -38 80 -8 q6 38 -40 48 q-44 -10 -40 -40 z" fill="#1A1A1A"/>
  <!-- Beard -->
  <path d="M158 180 q22 16 44 0 q-2 28 -22 32 q-20 -4 -22 -32 z" fill="#3A2014"/>

  <!-- Device -->
  <rect x="156" y="280" width="40" height="130" rx="16" fill="#3FBFB7" stroke="#0E4A45" stroke-width="1.6" transform="rotate(-8 176 345)"/>
  <rect x="164" y="296" width="24" height="44" rx="4" fill="rgba(255,255,255,0.35)" transform="rotate(-8 176 318)"/>

  <!-- Vapor -->
  <path d="M260 250 q44 -28 56 -6 q-22 30 -56 6 z" fill="rgba(220,235,255,0.45)"/>
  <path d="M276 210 q34 -22 42 -4 q-18 24 -42 4 z" fill="rgba(220,235,255,0.35)"/>
  <path d="M286 170 q26 -16 30 -2 q-12 18 -30 2 z" fill="rgba(220,235,255,0.25)"/>

  <!-- IG-style hearts/comments -->
  <g transform="translate(28 540)">
    <path d="M0 8 q0 -10 8 -10 q5 0 8 5 q3 -5 8 -5 q8 0 8 10 q0 12 -16 22 q-16 -10 -16 -22 z" fill="none" stroke="#F0EDE8" stroke-width="2"/>
    <text x="38" y="20" font-family="Arial, sans-serif" font-size="12" font-weight="700" fill="#F0EDE8">8.4K likes</text>
  </g>

  <text x="20" y="612" font-family="Arial Black, sans-serif" font-size="18" font-weight="900" fill="#F0EDE8" letter-spacing="1">@jonas.k</text>
  <text x="20" y="638" font-family="Arial, sans-serif" font-size="13" fill="#F0EDE8" opacity="0.92">flavor is on point. cookies &amp; cream is unreal.</text>
  <text x="20" y="660" font-family="Arial, sans-serif" font-size="12" fill="#F0EDE8" opacity="0.7" font-style="italic">#cookiesandcream #legendvapestore</text>

  <text x="340" y="704" font-family="Arial Black, sans-serif" font-size="11" font-weight="900" fill="rgba(240,237,232,0.4)" text-anchor="end" letter-spacing="2">LEGEND VAPE STORE</text>
</svg>
