<svg xmlns="http://www.w3.org/2000/svg" viewBox="0 0 360 720" width="360" height="720">
  <defs>
    <linearGradient id="ph1-bg" x1="0" x2="0.5" y1="0" y2="1">
      <stop offset="0" stop-color="#FF7A92"/>
      <stop offset="0.5" stop-color="#C8273A"/>
      <stop offset="1" stop-color="#3A0810"/>
    </linearGradient>
    <radialGradient id="ph1-glow" cx="0.5" cy="0.4" r="0.5">
      <stop offset="0" stop-color="rgba(255,200,210,0.5)"/>
      <stop offset="1" stop-color="rgba(0,0,0,0)"/>
    </radialGradient>
  </defs>
  <rect width="360" height="720" fill="url(#ph1-bg)"/>
  <rect width="360" height="720" fill="url(#ph1-glow)"/>

  <!-- Status bar -->
  <text x="20" y="36" font-family="Arial Black, sans-serif" font-size="13" font-weight="900" fill="#F0EDE8" letter-spacing="1.5">9:41</text>
  <rect x="304" y="22" width="36" height="14" rx="3" fill="rgba(240,237,232,0.85)"/>
  <rect x="306" y="24" width="28" height="10" rx="1" fill="rgba(0,0,0,0.5)"/>
  <text x="282" y="36" font-family="Arial, sans-serif" font-size="11" fill="#F0EDE8">5G</text>

  <!-- Subject silhouette -->
  <ellipse cx="180" cy="240" rx="80" ry="92" fill="rgba(255,180,190,0.55)"/>
  <ellipse cx="180" cy="160" rx="44" ry="52" fill="#F4C9A6"/>
  <path d="M140 130 q40 -50 80 0 q4 40 -40 50 q-44 -10 -40 -50 z" fill="#3A2014"/>
  <path d="M148 200 q32 14 64 0 l-2 80 q-30 14 -60 0 z" fill="#F4C9A6"/>

  <!-- Device in hand -->
  <rect x="200" y="280" width="36" height="120" rx="14" fill="#C8273A" stroke="#5A0E18" stroke-width="1.5" transform="rotate(15 218 340)"/>
  <rect x="208" y="296" width="20" height="40" rx="3" fill="rgba(255,255,255,0.35)" transform="rotate(15 218 320)"/>

  <!-- Vapor curls -->
  <path d="M260 240 q40 -30 50 -10 q-20 30 -50 10 z" fill="rgba(255,255,255,0.5)"/>
  <path d="M280 200 q30 -20 36 -4 q-14 22 -36 4 z" fill="rgba(255,255,255,0.4)"/>
  <path d="M290 160 q22 -16 26 -4 q-10 16 -26 4 z" fill="rgba(255,255,255,0.3)"/>

  <!-- TikTok-style sidebar -->
  <g transform="translate(310 360)">
    <circle cx="0" cy="0" r="20" fill="rgba(0,0,0,0.35)" stroke="#F0EDE8" stroke-width="1.5"/>
    <text x="0" y="48" font-family="Arial Black, sans-serif" font-size="10" font-weight="900" fill="#F0EDE8" text-anchor="middle">12K</text>
    <path d="M-8 -2 q0 -6 6 -6 q4 0 6 4 q2 -4 6 -4 q6 0 6 6 q0 8 -12 14 q-12 -6 -12 -14 z" fill="#F0EDE8" transform="translate(0 0)"/>
  </g>
  <g transform="translate(310 430)">
    <circle cx="0" cy="0" r="20" fill="rgba(0,0,0,0.35)" stroke="#F0EDE8" stroke-width="1.5"/>
    <text x="0" y="48" font-family="Arial Black, sans-serif" font-size="10" font-weight="900" fill="#F0EDE8" text-anchor="middle">348</text>
    <path d="M-8 -8 h16 v12 h-12 l-4 4 z" fill="#F0EDE8"/>
  </g>
  <g transform="translate(310 500)">
    <circle cx="0" cy="0" r="20" fill="rgba(0,0,0,0.35)" stroke="#F0EDE8" stroke-width="1.5"/>
    <text x="0" y="48" font-family="Arial Black, sans-serif" font-size="10" font-weight="900" fill="#F0EDE8" text-anchor="middle">SHARE</text>
    <path d="M-6 0 l8 -8 v4 h6 v8 h-6 v4 z" fill="#F0EDE8"/>
  </g>

  <!-- Caption block -->
  <rect x="20" y="600" width="260" height="2" fill="rgba(255,255,255,0.4)"/>
  <text x="20" y="630" font-family="Arial Black, sans-serif" font-size="18" font-weight="900" fill="#F0EDE8" letter-spacing="1">@nikitaa.x</text>
  <text x="20" y="654" font-family="Arial, sans-serif" font-size="13" fill="#F0EDE8" opacity="0.92">smooth as anything 🔥</text>
  <text x="20" y="676" font-family="Arial, sans-serif" font-size="12" fill="#F0EDE8" opacity="0.7" font-style="italic">#vapewithlegendvapestore #premium</text>

  <!-- Logo watermark -->
  <text x="340" y="704" font-family="Arial Black, sans-serif" font-size="11" font-weight="900" fill="rgba(240,237,232,0.4)" text-anchor="end" letter-spacing="2">LEGEND VAPE STORE</text>
</svg>
